<svg xmlns="http://www.w3.org/2000/svg" xmlns:xlink="http://www.w3.org/1999/xlink" width="29.608" height="24" viewBox="0 0 29.608 24">
  <defs>
    <filter id="Path_2047" x="0" y="0" width="29.608" height="23.728" filterUnits="userSpaceOnUse">
      <feOffset input="SourceAlpha"/>
      <feGaussianBlur stdDeviation="2" result="blur"/>
      <feFlood flood-color="#f26309"/>
      <feComposite operator="in" in2="blur"/>
      <feComposite in="SourceGraphic"/>
    </filter>
  </defs>
  <g id="Group_565" data-name="Group 565" transform="translate(-17240 -1234)">
    <rect id="Rectangle_705" data-name="Rectangle 705" width="24" height="24" transform="translate(17243 1234)" fill="rgba(0,0,0,0)"/>
    <g transform="matrix(1, 0, 0, 1, 17240, 1234)" filter="url(#Path_2047)">
      <path id="Path_2047-2" data-name="Path 2047" d="M15.408,1.48A7.54,7.54,0,0,0,11.253,0l-.222.213a9.887,9.887,0,0,1,3.729,1.8A13.977,13.977,0,0,0,8.8.582,13.962,13.962,0,0,0,2.849,2.013,9.839,9.839,0,0,1,6.578.213L6.355,0A7.54,7.54,0,0,0,2.2,1.48,17.863,17.863,0,0,0,0,9.706a6.42,6.42,0,0,0,4.693,2.022s.56-.622.964-1.173A4.834,4.834,0,0,1,2.987,8.906,10.116,10.116,0,0,0,8.8,10.568a10.067,10.067,0,0,0,5.818-1.662,4.857,4.857,0,0,1-2.671,1.649c.4.551.964,1.173.964,1.173a6.4,6.4,0,0,0,4.693-2.022,17.864,17.864,0,0,0-2.2-8.226M6.1,8.289a1.569,1.569,0,0,1,0-3.138V5.16a1.565,1.565,0,0,1,0,3.129m5.413,0a1.565,1.565,0,0,1,0-3.129V5.151a1.569,1.569,0,0,1,0,3.138" transform="translate(6 6)" fill="#f26309"/>
    </g>
  </g>
</svg>
